<svg width="59" height="50" viewBox="0 0 59 50" fill="none" xmlns="http://www.w3.org/2000/svg">
<path d="M14.3134 49.2886C11.6587 49.2886 9.25405 48.6345 7.0995 47.3264C4.98341 46.0182 3.30978 44.133 2.0786 41.6707C0.847427 39.1698 0.231838 36.2265 0.231838 32.8408C0.231838 26.9927 1.48225 21.5871 3.98308 16.6239C6.48391 11.6222 10.1774 7.62092 15.0637 4.61993C19.9499 1.58046 25.8172 0.0607307 32.6656 0.0607307C34.4355 0.0607307 36.3207 0.195391 38.3214 0.464712C40.3605 0.734031 42.2073 1.13801 43.8617 1.67665C44.9389 1.98444 45.4776 2.75393 45.4776 3.98511C45.4776 4.98544 45.0928 5.92806 44.3234 6.81297C43.5923 7.69788 42.7267 8.14033 41.7263 8.14033C41.4185 8.14033 41.1877 8.12109 41.0338 8.08262C39.0331 7.62093 37.321 7.29389 35.8975 7.10152C34.4739 6.87068 32.9734 6.75525 31.396 6.75525C26.5098 6.75525 22.3545 7.94796 18.9303 10.3334C15.5061 12.6803 12.9476 15.7967 11.2547 19.6826C9.56185 23.5685 8.71541 27.7622 8.71541 32.2637C8.71541 35.534 9.35024 38.0733 10.6199 39.8816C11.928 41.6514 13.6209 42.5363 15.6985 42.5363C18.0454 42.5363 20.1038 41.5745 21.8736 39.6508C23.6434 37.727 25.2594 34.6106 26.7214 30.3015C28.1834 25.9924 29.6262 20.1443 31.0497 12.7572C31.2806 11.68 31.7423 10.949 32.4348 10.5642C33.1273 10.1795 34.0507 9.98709 35.2049 9.98709C37.9366 9.98709 39.3025 10.872 39.3025 12.6418C39.3025 12.9496 39.2447 13.3344 39.1293 13.796C38.129 17.528 37.2056 21.664 36.3592 26.204C35.5512 30.7055 35.1472 34.1297 35.1472 36.4766C35.1472 38.5542 35.455 40.074 36.0706 41.0358C36.6862 41.9592 37.6288 42.4209 38.8985 42.4209C40.1297 42.4209 41.3031 42.0169 42.4189 41.209C43.5346 40.3625 44.9389 38.939 46.6318 36.9383C47.0935 36.3997 47.6129 36.1304 48.19 36.1304C48.6902 36.1304 49.0749 36.3612 49.3442 36.8229C49.652 37.2846 49.8059 37.9194 49.8059 38.7274C49.8059 40.2279 49.4404 41.4206 48.7094 42.3055C46.8242 44.5755 44.9774 46.3068 43.1691 47.4995C41.3608 48.6922 39.1486 49.2886 36.5323 49.2886C33.8391 49.2886 31.6653 48.5191 30.0109 46.9801C28.3565 45.4027 27.3177 43.1904 26.8945 40.3433C24.0474 46.3068 19.8537 49.2886 14.3134 49.2886ZM53.1031 18.2975C51.4872 18.2975 50.2753 17.932 49.4673 17.201C48.6594 16.4315 48.2554 15.3735 48.2554 14.0269C48.2554 12.6803 48.7748 11.5645 49.8136 10.6796C50.8909 9.75625 52.2182 9.29456 53.7957 9.29456C55.2192 9.29456 56.3735 9.64082 57.2584 10.3334C58.1433 11.0259 58.5857 12.007 58.5857 13.2766C58.5857 14.8156 58.0856 16.0468 57.0852 16.9702C56.0849 17.8551 54.7575 18.2975 53.1031 18.2975ZM47.5629 49.2886C46.3317 49.2886 45.4852 49.0385 45.0235 48.5383C44.5619 48.0381 44.331 47.2494 44.331 46.1721C44.331 45.8643 44.3695 45.3257 44.4464 44.5562C45.062 37.5154 46.0816 31.1095 47.5051 25.3383C47.8129 24.1456 48.3131 23.3184 49.0056 22.8567C49.7366 22.3566 50.8909 22.1065 52.4683 22.1065C54.1227 22.1065 54.9499 22.7798 54.9499 24.1264C54.9499 24.3188 54.9114 24.6843 54.8345 25.2229C53.1031 33.4564 52.0643 40.3625 51.7181 45.9413C51.6411 47.1725 51.2756 48.0381 50.6216 48.5383C49.9675 49.0385 48.9479 49.2886 47.5629 49.2886Z" fill="#DF798A"/>
</svg>
